<svg width="1600" height="800" viewBox="0 0 1600 800" fill="none" xmlns="http://www.w3.org/2000/svg">
<rect width="1600" height="800" fill="#F1DFD5"/>
<mask id="mask0_1_13911" style="mask-type:alpha" maskUnits="userSpaceOnUse" x="0" y="-10" width="1600" height="800">
<path d="M0 -10H1600V790H0V-10Z" fill="#F1DFD5"/>
</mask>
<g mask="url(#mask0_1_13911)">
<path fill-rule="evenodd" clip-rule="evenodd" d="M1558.6 689.754C1541.62 692.026 1527.15 677.879 1510.23 675.093C1481.93 670.43 1445.04 689.31 1425.95 667.9C1408.53 648.364 1423.43 614.52 1435.53 591.312C1445.91 571.418 1469.08 563.194 1487.35 550.173C1498.71 542.076 1513.52 539.654 1522.73 529.171C1538.4 511.33 1537.76 480.419 1558.6 469.042C1579.13 457.836 1608.81 457.916 1627.51 471.971C1646.52 486.266 1642.1 515.987 1650.59 538.205C1657.57 556.478 1678.34 572.463 1673.11 591.312C1667.54 611.388 1640.04 615.148 1625.18 629.748C1615.08 639.669 1610.56 653.603 1600.04 663.082C1587.63 674.271 1575.17 687.539 1558.6 689.754Z" fill="#FF6A61"/>
<mask id="mask1_1_13911" style="mask-type:alpha" maskUnits="userSpaceOnUse" x="1418" y="461" width="256" height="229">
<path fill-rule="evenodd" clip-rule="evenodd" d="M1558.6 689.754C1541.62 692.026 1527.15 677.879 1510.23 675.093C1481.93 670.43 1445.04 689.31 1425.95 667.9C1408.53 648.364 1423.43 614.52 1435.53 591.312C1445.91 571.418 1469.08 563.194 1487.35 550.173C1498.71 542.076 1513.52 539.654 1522.73 529.171C1538.4 511.33 1537.76 480.419 1558.6 469.042C1579.13 457.836 1608.81 457.916 1627.51 471.971C1646.52 486.266 1642.1 515.987 1650.59 538.205C1657.57 556.478 1678.34 572.463 1673.11 591.312C1667.54 611.388 1640.04 615.148 1625.18 629.748C1615.08 639.669 1610.56 653.603 1600.04 663.082C1587.63 674.271 1575.17 687.539 1558.6 689.754Z" fill="#C4C4C4"/>
</mask>
<g mask="url(#mask1_1_13911)">
<path fill-rule="evenodd" clip-rule="evenodd" d="M1542.89 674.057C1525.9 676.328 1511.43 662.185 1494.51 659.399C1466.2 654.737 1429.31 673.613 1410.22 652.208C1392.8 632.677 1407.69 598.841 1419.8 575.639C1430.18 555.75 1453.35 547.528 1471.62 534.509C1482.99 526.414 1497.8 523.993 1507.01 513.513C1522.68 495.677 1522.05 464.773 1542.89 453.398C1563.42 442.195 1593.11 442.276 1611.8 456.327C1630.81 470.618 1626.39 500.332 1634.89 522.545C1641.87 540.813 1662.65 556.794 1657.41 575.639C1651.84 595.71 1624.34 599.469 1609.47 614.065C1599.37 623.983 1594.85 637.915 1584.33 647.391C1571.92 658.577 1559.46 671.842 1542.89 674.057Z" stroke="#F1DFD5" stroke-width="4.30886"/>
<path fill-rule="evenodd" clip-rule="evenodd" d="M1524.68 638.766C1509.89 640.743 1497.29 628.431 1482.57 626.007C1457.93 621.949 1425.81 638.379 1409.19 619.747C1394.02 602.745 1406.99 573.292 1417.53 553.095C1426.56 535.782 1446.74 528.625 1462.64 517.293C1472.54 510.247 1485.43 508.139 1493.45 499.016C1507.09 483.49 1506.54 456.589 1524.68 446.688C1542.55 436.936 1568.4 437.006 1584.67 449.237C1601.22 461.677 1597.38 487.542 1604.77 506.878C1610.85 522.781 1628.93 536.692 1624.38 553.095C1619.53 570.567 1595.59 573.839 1582.64 586.545C1573.85 595.178 1569.92 607.305 1560.76 615.554C1549.95 625.291 1539.1 636.838 1524.68 638.766Z" stroke="#F1DFD5" stroke-width="4.30886"/>
<path fill-rule="evenodd" clip-rule="evenodd" d="M1500.56 608.699C1487.42 610.46 1476.23 599.496 1463.15 597.336C1441.25 593.722 1412.72 608.355 1397.95 591.761C1384.48 576.62 1396 550.389 1405.36 532.402C1413.39 516.983 1431.31 510.609 1445.44 500.517C1454.23 494.241 1465.69 492.364 1472.81 484.239C1484.93 470.412 1484.44 446.454 1500.56 437.636C1516.44 428.951 1539.4 429.014 1553.86 439.907C1568.57 450.986 1565.15 474.021 1571.71 491.241C1577.12 505.404 1593.18 517.793 1589.14 532.402C1584.83 547.962 1563.56 550.876 1552.06 562.192C1544.25 569.881 1540.75 580.681 1532.61 588.027C1523.01 596.699 1513.37 606.982 1500.56 608.699Z" stroke="#F1DFD5" stroke-width="4.30886"/>
</g>
</g>
<path fill-rule="evenodd" clip-rule="evenodd" d="M77.1982 208.788C77.0107 207.676 76.8695 206.576 76.7782 205.476C76.6407 203.826 76.7257 202.163 76.677 200.513C76.6557 199.813 76.572 197.988 76.6057 197.726C76.912 195.438 78.7582 195.088 79.2982 195.026C79.5594 194.988 82.2419 194.688 82.8207 197.663C83.5307 201.301 83.7582 204.963 83.507 208.551C84.0932 211.601 85.0957 214.638 86.4195 217.388C91.687 228.326 101.724 229.388 112.599 229.288C114.272 229.263 115.661 230.576 115.748 232.238C115.836 233.913 114.591 235.363 112.926 235.513C106.847 236.101 96.0619 240.976 92.3332 246.051C91.5532 247.113 91.0994 249.676 90.4994 252.188C89.6619 255.676 88.6657 259.126 87.5495 260.576C87.382 260.801 85.3457 263.101 84.7382 263.438C83.2782 264.238 82.1095 263.776 81.4457 263.351C80.782 262.926 80.0307 262.088 79.7307 260.701C79.417 259.251 79.682 256.276 79.6332 255.638C79.4557 253.326 78.9932 248.788 78.0495 244.888C77.5407 242.788 76.9982 240.851 76.1007 239.888C72.7782 236.326 67.4657 236.851 62.992 237.438C62.4782 237.501 61.9645 237.576 61.452 237.638C59.6307 238.176 57.6969 238.576 55.6532 238.813C52.5669 239.176 52.0595 236.338 52.032 236.151C51.9745 235.738 51.7607 233.613 54.0869 232.763C54.3407 232.676 56.2132 232.263 56.9345 232.101C57.9395 231.876 58.9557 231.701 59.9757 231.538C70.5119 228.263 76.2345 219.063 77.1982 208.788ZM80.8145 220.151C84.792 228.376 90.8282 232.351 97.9832 234.151H97.982C93.5145 236.488 89.4507 239.413 87.2969 242.351C86.4794 243.463 85.7295 245.701 85.0532 248.213C84.687 245.876 84.192 243.388 83.5382 241.263C82.7945 238.838 81.7932 236.826 80.6757 235.626C78.5182 233.313 75.8107 232.026 72.8994 231.388C76.3844 228.301 79.027 224.451 80.8145 220.151Z" fill="black"/>
</svg>
