<svg width="343" height="250" viewBox="0 0 343 250" fill="none" xmlns="http://www.w3.org/2000/svg">
<rect width="343" height="250" rx="20" fill="#86E7B8"/>
<mask id="mask0_23_14339" style="mask-type:alpha" maskUnits="userSpaceOnUse" x="0" y="0" width="343" height="250">
<rect width="343" height="250" rx="20" fill="#FFC947"/>
</mask>
<g mask="url(#mask0_23_14339)">
<path d="M340.741 187.144C340.712 186.71 340.336 186.382 339.902 186.411C339.468 186.44 339.139 186.816 339.168 187.25L340.741 187.144ZM331.535 206.398L331.131 205.721L331.535 206.398ZM311.325 203.822L312.054 203.523L311.325 203.822ZM313.868 195.851L314.212 196.561L313.868 195.851ZM320.872 198.109L320.284 198.633L320.872 198.109ZM312.803 218.526L313.175 219.22L312.803 218.526ZM293.952 215.077L293.239 215.412L293.952 215.077ZM295.679 209.03L295.214 208.394L295.679 209.03ZM292.479 232.397L292.244 231.644L292.479 232.397ZM275.955 229.488L275.835 228.71C275.55 228.753 275.313 228.949 275.214 229.219C275.116 229.489 275.172 229.791 275.362 230.008L275.955 229.488ZM281.546 229.424C281.976 229.357 282.271 228.955 282.205 228.525C282.138 228.094 281.736 227.799 281.306 227.866L281.546 229.424ZM279.19 234.382C279.477 234.709 279.975 234.742 280.302 234.456C280.63 234.169 280.663 233.671 280.376 233.344L279.19 234.382ZM339.955 187.197C339.168 187.25 339.168 187.25 339.168 187.249C339.168 187.249 339.168 187.249 339.168 187.249C339.168 187.249 339.168 187.25 339.168 187.25C339.168 187.251 339.169 187.253 339.169 187.255C339.169 187.26 339.17 187.269 339.17 187.28C339.171 187.303 339.173 187.339 339.175 187.386C339.179 187.481 339.185 187.623 339.188 187.807C339.194 188.177 339.194 188.714 339.164 189.379C339.106 190.709 338.933 192.537 338.477 194.532C337.561 198.538 335.534 203.092 331.131 205.721L331.939 207.075C336.872 204.129 339.054 199.083 340.014 194.883C340.496 192.773 340.678 190.847 340.739 189.448C340.77 188.748 340.771 188.177 340.764 187.78C340.76 187.581 340.755 187.425 340.75 187.317C340.748 187.263 340.746 187.221 340.744 187.192C340.743 187.178 340.742 187.167 340.742 187.159C340.742 187.155 340.742 187.151 340.741 187.149C340.741 187.148 340.741 187.147 340.741 187.146C340.741 187.146 340.741 187.145 340.741 187.145C340.741 187.145 340.741 187.144 339.955 187.197ZM331.131 205.721C327.678 207.784 323.448 208.692 319.793 208.324C316.125 207.956 313.209 206.335 312.054 203.523L310.596 204.122C312.057 207.678 315.65 209.492 319.635 209.893C323.633 210.295 328.201 209.307 331.939 207.075L331.131 205.721ZM312.054 203.523C311.72 202.711 311.541 201.278 311.837 199.866C312.129 198.472 312.855 197.218 314.212 196.561L313.525 195.142C311.597 196.076 310.652 197.835 310.294 199.543C309.94 201.233 310.131 202.99 310.596 204.122L312.054 203.523ZM314.212 196.561C315.5 195.937 316.652 196.078 317.67 196.552C318.719 197.041 319.616 197.885 320.284 198.633L321.46 197.584C320.739 196.776 319.672 195.746 318.336 195.124C316.968 194.486 315.313 194.276 313.525 195.142L314.212 196.561ZM320.284 198.633C322.905 201.571 322.87 205.281 321.174 208.875C319.471 212.485 316.134 215.847 312.431 217.831L313.175 219.22C317.144 217.094 320.738 213.495 322.6 209.548C324.47 205.584 324.633 201.141 321.46 197.584L320.284 198.633ZM312.431 217.831C309.258 219.531 305.505 220.319 302.199 219.886C298.911 219.455 296.117 217.833 294.665 214.742L293.239 215.412C294.968 219.096 298.301 220.965 301.994 221.448C305.669 221.93 309.751 221.054 313.175 219.22L312.431 217.831ZM294.665 214.742C294.216 213.784 294.124 212.874 294.348 212.05C294.572 211.224 295.137 210.402 296.144 209.667L295.214 208.394C293.979 209.296 293.163 210.399 292.827 211.637C292.49 212.877 292.656 214.172 293.239 215.412L294.665 214.742ZM296.144 209.667C297.043 209.01 297.924 208.892 298.798 209.107C299.711 209.333 300.663 209.936 301.602 210.812L302.678 209.66C301.638 208.69 300.453 207.892 299.176 207.577C297.861 207.253 296.5 207.455 295.214 208.394L296.144 209.667ZM301.602 210.812C304.693 213.699 304.46 218.155 302.251 222.444C300.049 226.72 296.041 230.46 292.244 231.644L292.713 233.149C297.009 231.809 301.309 227.716 303.652 223.166C305.989 218.629 306.54 213.268 302.678 209.66L301.602 210.812ZM292.244 231.644C289.308 232.56 285.375 231.899 282.056 230.929C280.419 230.451 278.975 229.912 277.94 229.491C277.423 229.281 277.009 229.102 276.726 228.975C276.584 228.912 276.475 228.862 276.403 228.828C276.366 228.811 276.339 228.798 276.321 228.79C276.312 228.786 276.305 228.783 276.301 228.781C276.299 228.78 276.298 228.779 276.297 228.779C276.297 228.778 276.296 228.778 276.296 228.778C276.296 228.778 276.296 228.778 276.296 228.778C276.296 228.778 276.296 228.778 275.955 229.488C275.613 230.199 275.613 230.199 275.614 230.199C275.614 230.199 275.614 230.199 275.614 230.199C275.615 230.2 275.615 230.2 275.616 230.2C275.618 230.201 275.62 230.202 275.623 230.203C275.629 230.206 275.637 230.21 275.647 230.215C275.668 230.225 275.699 230.239 275.739 230.258C275.818 230.295 275.934 230.348 276.083 230.414C276.381 230.547 276.811 230.734 277.347 230.952C278.417 231.386 279.913 231.945 281.614 232.442C284.968 233.422 289.298 234.215 292.713 233.149L292.244 231.644ZM276.075 230.267L281.546 229.424L281.306 227.866L275.835 228.71L276.075 230.267ZM275.362 230.008L279.19 234.382L280.376 233.344L276.548 228.969L275.362 230.008Z" fill="white"/>
<mask id="mask1_23_14339" style="mask-type:alpha" maskUnits="userSpaceOnUse" x="-42" y="-31" width="129" height="115">
<path fill-rule="evenodd" clip-rule="evenodd" d="M28.6453 83.8765C20.1138 85.0175 12.8472 77.9131 4.3542 76.5139C-9.85946 74.1722 -28.3845 83.6536 -37.9714 72.9017C-46.7191 63.091 -39.2387 46.095 -33.1605 34.4405C-27.9502 24.4502 -16.3137 20.3202 -7.13792 13.7811C-1.43222 9.7149 6.00483 8.4985 10.6283 3.23424C18.4969 -5.72493 18.1793 -21.2481 28.6453 -26.9616C38.9535 -32.589 53.8597 -32.5485 63.2465 -25.4905C72.7935 -18.312 70.5742 -3.38663 74.838 7.77113C78.3447 16.9475 88.7763 24.9748 86.1487 34.4405C83.3501 44.5224 69.5417 46.4106 62.0771 53.7424C57.0048 58.7244 54.7351 65.7222 49.454 70.4824C43.2206 76.101 36.9631 82.7641 28.6453 83.8765Z" fill="#C4C4C4"/>
</mask>
<g mask="url(#mask1_23_14339)">
<path fill-rule="evenodd" clip-rule="evenodd" d="M20.7546 75.9937C12.2219 77.1344 4.9543 70.0317 -3.5398 68.6329C-17.7554 66.2918 -36.283 75.7708 -45.8712 65.0216C-54.6201 55.2134 -47.1387 38.2215 -41.0596 26.5699C-35.8486 16.582 -24.2105 12.453 -15.0335 5.91547C-9.32702 1.85027 -1.88895 0.634163 2.73514 -4.62882C10.6048 -13.5858 10.2871 -29.1052 20.7546 -34.8173C31.0642 -40.4433 45.9724 -40.4028 55.3605 -33.3465C64.9088 -26.1698 62.6892 -11.2481 66.9536 -0.0930422C70.4608 9.08112 80.8937 17.1065 78.2658 26.5699C75.4669 36.6493 61.6566 38.5369 54.1909 45.867C49.118 50.8478 46.848 57.8439 41.5662 62.6029C35.3319 68.2201 29.0736 74.8816 20.7546 75.9937Z" stroke="white" stroke-width="3.24199"/>
<path fill-rule="evenodd" clip-rule="evenodd" d="M11.6114 58.2714C4.18354 59.2644 -2.14313 53.0817 -9.53749 51.864C-21.9126 49.8262 -38.0414 58.0774 -46.3882 48.7205C-54.0043 40.1826 -47.4915 25.3916 -42.1996 15.2491C-37.6632 6.55491 -27.5319 2.96075 -19.5431 -2.73002C-14.5754 -6.26868 -8.10037 -7.32727 -4.07497 -11.9086C2.77579 -19.7054 2.49925 -33.2147 11.6114 -38.1869C20.5863 -43.0842 33.5643 -43.049 41.7369 -36.9067C50.0489 -30.6595 48.1167 -17.6705 51.829 -7.96028C54.8821 0.0256112 63.9643 7.01148 61.6766 15.2491C59.24 24.023 47.2178 25.6662 40.7187 32.0468C36.3026 36.3825 34.3265 42.4725 29.7285 46.615C24.3014 51.5047 18.8534 57.3034 11.6114 58.2714Z" stroke="white" stroke-width="3.24199"/>
<path fill-rule="evenodd" clip-rule="evenodd" d="M-0.501516 43.1719C-7.10086 44.0562 -12.7218 38.5499 -19.2914 37.4655C-30.2861 35.6506 -44.6157 42.9991 -52.0315 34.6659C-58.7981 27.0621 -53.0118 13.8894 -48.3101 4.8566C-44.2798 -2.8864 -35.2786 -6.08733 -28.1809 -11.1555C-23.7673 -14.307 -18.0146 -15.2497 -14.4382 -19.3298C-8.35159 -26.2736 -8.59728 -38.3048 -0.501516 -42.733C7.47222 -47.0945 19.0026 -47.0632 26.2635 -41.5929C33.6484 -36.0292 31.9317 -24.4613 35.23 -15.8135C37.9425 -8.70133 46.0116 -2.47978 43.9791 4.8566C41.8143 12.6706 31.1331 14.1339 25.359 19.8165C21.4354 23.6778 19.6797 29.1014 15.5947 32.7908C10.7729 37.1455 5.93261 42.3097 -0.501516 43.1719Z" stroke="white" stroke-width="3.24199"/>
</g>
</g>
</svg>
