<svg width="1300" height="390" viewBox="0 0 1300 390" fill="none" xmlns="http://www.w3.org/2000/svg">
<rect x="4" width="1296" height="390" rx="50" fill="#86E7B8"/>
<mask id="mask0_1_13567" style="mask-type:alpha" maskUnits="userSpaceOnUse" x="4" y="0" width="1296" height="390">
<rect x="4" width="1296" height="390" rx="50" fill="#FFC947"/>
</mask>
<g mask="url(#mask0_1_13567)">
<path d="M1134.51 129.317C1134.46 128.471 1133.73 127.832 1132.88 127.889C1132.03 127.946 1131.39 128.677 1131.45 129.523L1134.51 129.317ZM1098.51 208.046L1097.72 206.728L1098.51 208.046ZM1015.75 197.498L1017.17 196.914L1015.75 197.498ZM1026.16 164.859L1026.83 166.24L1026.16 164.859ZM1054.84 174.102L1053.7 175.124L1054.84 174.102ZM1021.8 257.707L1022.52 259.06L1021.8 257.707ZM944.606 243.586L943.217 244.239L944.606 243.586ZM951.678 218.825L952.583 220.064L951.678 218.825ZM938.573 314.508L938.116 313.043L938.573 314.508ZM870.91 302.599L870.676 301.082C870.122 301.167 869.659 301.547 869.468 302.073C869.276 302.599 869.386 303.188 869.755 303.61L870.91 302.599ZM893.547 300.66C894.385 300.531 894.959 299.747 894.83 298.91C894.701 298.072 893.917 297.497 893.079 297.627L893.547 300.66ZM885.432 321.522C885.99 322.16 886.96 322.224 887.598 321.666C888.236 321.108 888.3 320.138 887.742 319.5L885.432 321.522ZM1132.98 129.42C1131.45 129.523 1131.45 129.523 1131.45 129.522C1131.45 129.523 1131.45 129.523 1131.45 129.523C1131.45 129.524 1131.45 129.526 1131.45 129.529C1131.45 129.534 1131.45 129.543 1131.45 129.555C1131.45 129.579 1131.46 129.616 1131.46 129.666C1131.47 129.767 1131.47 129.918 1131.48 130.119C1131.5 130.521 1131.52 131.118 1131.53 131.889C1131.56 133.432 1131.56 135.669 1131.44 138.428C1131.19 143.949 1130.48 151.542 1128.58 159.831C1124.78 176.446 1116.32 195.623 1097.72 206.728L1099.29 209.364C1118.92 197.643 1127.69 177.507 1131.57 160.515C1133.52 152.001 1134.26 144.218 1134.5 138.563C1134.63 135.734 1134.63 133.433 1134.6 131.835C1134.59 131.036 1134.57 130.412 1134.55 129.985C1134.54 129.772 1134.53 129.608 1134.52 129.495C1134.52 129.439 1134.52 129.396 1134.52 129.366C1134.52 129.351 1134.52 129.34 1134.51 129.332C1134.51 129.328 1134.51 129.324 1134.51 129.322C1134.51 129.321 1134.51 129.319 1134.51 129.319C1134.51 129.318 1134.51 129.317 1132.98 129.42ZM1097.72 206.728C1083.27 215.355 1065.59 219.161 1050.25 217.618C1034.89 216.074 1022.22 209.228 1017.17 196.914L1014.33 198.081C1019.98 211.844 1033.97 219.066 1049.95 220.672C1065.95 222.282 1084.29 218.322 1099.29 209.364L1097.72 206.728ZM1017.17 196.914C1015.66 193.246 1014.91 187.03 1016.19 180.951C1017.45 174.906 1020.66 169.227 1026.83 166.24L1025.49 163.477C1018.21 167.003 1014.58 173.664 1013.18 180.321C1011.79 186.943 1012.56 193.79 1014.33 198.081L1017.17 196.914ZM1026.83 166.24C1032.64 163.426 1037.9 164.076 1042.44 166.195C1047.05 168.341 1050.9 171.995 1053.7 175.124L1055.99 173.081C1053.09 169.836 1048.9 165.819 1043.74 163.412C1038.52 160.977 1032.28 160.192 1025.49 163.477L1026.83 166.24ZM1053.7 175.124C1065.02 187.818 1064.74 203.798 1057.61 218.911C1050.47 234.056 1036.52 248.078 1021.07 256.354L1022.52 259.06C1038.49 250.506 1052.93 236.022 1060.39 220.221C1067.85 204.388 1068.39 186.98 1055.99 173.081L1053.7 175.124ZM1021.07 256.354C1007.81 263.459 992.091 266.779 978.157 264.954C964.258 263.134 952.238 256.227 945.996 242.934L943.217 244.239C950.001 258.686 963.071 266.074 977.759 267.998C992.411 269.916 1008.77 266.426 1022.52 259.06L1021.07 256.354ZM945.996 242.934C944.011 238.708 943.556 234.569 944.594 230.747C945.634 226.921 948.214 223.255 952.583 220.064L950.773 217.586C945.959 221.101 942.89 225.315 941.632 229.942C940.374 234.574 940.974 239.462 943.217 244.239L945.996 242.934ZM952.583 220.064C956.682 217.071 960.803 216.497 964.857 217.497C968.986 218.515 973.136 221.195 977.087 224.885L979.182 222.642C975.034 218.768 970.43 215.71 965.593 214.517C960.68 213.305 955.623 214.043 950.773 217.586L952.583 220.064ZM977.087 224.885C990.572 237.48 989.277 256.7 980.094 274.529C970.925 292.331 954.2 308.026 938.116 313.043L939.03 315.973C956.086 310.653 973.378 294.272 982.823 275.934C992.254 257.623 994.17 236.639 979.182 222.642L977.087 224.885ZM938.116 313.043C925.577 316.954 909.048 314.104 895.418 310.123C888.648 308.145 882.679 305.915 878.402 304.179C876.264 303.311 874.552 302.567 873.376 302.042C872.789 301.78 872.335 301.571 872.03 301.43C871.878 301.359 871.763 301.305 871.686 301.269C871.648 301.25 871.619 301.237 871.601 301.228C871.591 301.224 871.584 301.22 871.58 301.218C871.578 301.217 871.576 301.216 871.575 301.216C871.575 301.216 871.575 301.216 871.575 301.216C871.575 301.216 871.575 301.216 870.91 302.599C870.245 303.982 870.245 303.982 870.246 303.983C870.246 303.983 870.247 303.983 870.248 303.983C870.249 303.984 870.252 303.985 870.255 303.987C870.26 303.989 870.269 303.993 870.279 303.999C870.301 304.009 870.333 304.024 870.374 304.043C870.457 304.083 870.578 304.14 870.737 304.214C871.055 304.361 871.522 304.575 872.124 304.844C873.328 305.383 875.073 306.14 877.247 307.023C881.593 308.787 887.663 311.055 894.557 313.069C908.256 317.071 925.558 320.176 939.03 315.973L938.116 313.043ZM871.144 304.116L893.547 300.66L893.079 297.627L870.676 301.082L871.144 304.116ZM869.755 303.61L885.432 321.522L887.742 319.5L872.065 301.588L869.755 303.61Z" fill="white"/>
<mask id="mask1_1_13567" style="mask-type:alpha" maskUnits="userSpaceOnUse" x="-120" y="-44" width="448" height="400">
<path fill-rule="evenodd" clip-rule="evenodd" d="M125.597 355.57C95.922 359.539 70.6468 334.828 41.1061 329.961C-8.33273 321.817 -72.7678 354.795 -106.114 317.397C-136.54 283.273 -110.522 224.156 -89.3799 183.619C-71.257 148.87 -30.7821 134.505 1.13345 111.76C20.9794 97.6171 46.8474 93.3861 62.929 75.0756C90.298 43.9133 89.1932 -10.0804 125.597 -29.9534C161.451 -49.5269 213.299 -49.3862 245.949 -24.8366C279.156 0.132019 271.436 52.0465 286.267 90.8561C298.464 122.774 334.748 150.695 325.609 183.619C315.875 218.687 267.845 225.254 241.881 250.756C224.239 268.085 216.344 292.425 197.975 308.982C176.293 328.525 154.528 351.701 125.597 355.57Z" fill="#C4C4C4"/>
</mask>
<g mask="url(#mask1_1_13567)">
<path fill-rule="evenodd" clip-rule="evenodd" d="M71.9091 279.847C42.2304 283.815 16.9517 259.11 -12.593 254.244C-62.0386 246.101 -126.482 279.072 -159.833 241.683C-190.264 207.567 -164.241 148.465 -143.097 107.938C-124.971 73.1973 -84.491 58.8357 -52.5711 36.0965C-32.7225 21.9566 -6.85092 17.7267 9.23288 -0.579322C36.6056 -31.734 35.5007 -85.7145 71.9091 -105.583C107.769 -125.151 159.623 -125.011 192.278 -100.467C225.489 -75.5046 217.769 -23.6028 232.602 15.1973C244.8 47.1074 281.089 75.0217 271.948 107.938C262.213 142.997 214.177 149.562 188.21 175.058C170.564 192.383 162.669 216.717 144.297 233.27C122.613 252.808 100.845 275.979 71.9091 279.847Z" stroke="white" stroke-width="5.36256"/>
<path fill-rule="evenodd" clip-rule="evenodd" d="M40.105 218.203C14.2688 221.657 -7.73698 200.152 -33.4565 195.917C-76.5002 188.829 -132.6 217.529 -161.633 184.983C-188.124 155.286 -165.471 103.839 -147.064 68.5605C-131.285 38.3197 -96.0457 25.8183 -68.2585 6.02435C-50.9797 -6.28404 -28.4578 -9.96609 -14.4564 -25.9011C9.37229 -53.0205 8.41043 -100.009 40.105 -117.304C71.3219 -134.338 116.463 -134.216 144.889 -112.851C173.801 -91.1217 167.08 -45.9424 179.992 -12.1679C190.612 15.6091 222.202 39.9078 214.245 68.5605C205.77 99.0785 163.953 104.794 141.348 126.987C125.987 142.068 119.114 163.25 103.121 177.659C84.244 194.667 65.2943 214.836 40.105 218.203Z" stroke="white" stroke-width="5.36256"/>
<path fill-rule="evenodd" clip-rule="evenodd" d="M-2.02395 165.687C-24.9782 168.762 -44.5294 149.61 -67.38 145.838C-105.622 139.526 -155.465 165.086 -181.259 136.101C-204.795 109.653 -184.668 63.8344 -168.315 32.4161C-154.296 5.48395 -122.988 -5.6497 -98.3 -23.278C-82.9486 -34.2398 -62.9389 -37.519 -50.4993 -51.7105C-29.3286 -75.8628 -30.1831 -117.71 -2.02395 -133.113C25.7108 -148.283 65.8164 -148.174 91.0719 -129.147C116.758 -109.795 110.787 -69.5591 122.259 -39.4798C131.694 -14.7419 159.761 6.89828 152.691 32.4161C145.162 59.5951 108.01 64.6852 87.9256 84.4505C74.2785 97.8812 68.1718 116.746 53.9628 129.578C37.1915 144.725 20.3556 162.688 -2.02395 165.687Z" stroke="white" stroke-width="5.36256"/>
</g>
</g>
</svg>
