<svg width="375" height="1054" viewBox="0 0 375 1054" fill="none" xmlns="http://www.w3.org/2000/svg">
<rect width="375" height="1054" fill="#F1DFD5"/>
<mask id="mask0_23_14356" style="mask-type:alpha" maskUnits="userSpaceOnUse" x="0" y="0" width="375" height="1054">
<rect width="375" height="1054" fill="#F1DFD5"/>
</mask>
<g mask="url(#mask0_23_14356)">
<path fill-rule="evenodd" clip-rule="evenodd" d="M31.0736 75.1757C26.5801 77.5148 21.1362 75.0372 16.1555 75.9627C7.81994 77.5116 -0.535446 86.4672 -7.99359 82.4352C-14.7989 78.7562 -14.0605 67.852 -13.0291 60.185C-12.145 53.6128 -6.5311 48.9978 -2.76142 43.542C-0.417346 40.1494 3.45539 37.9876 4.96068 34.1486C7.5225 27.615 4.23964 19.0869 8.88871 13.8298C13.4677 8.65193 21.726 5.69076 28.334 7.71835C35.0548 9.78055 36.8139 18.4856 41.4071 23.8077C45.1847 28.1847 52.565 30.5396 53.0053 36.3046C53.4743 42.4448 46.2097 46.2536 43.5457 51.8057C41.7355 55.5784 41.88 59.9058 39.9098 63.5974C37.5844 67.9548 35.4547 72.8951 31.0736 75.1757Z" fill="#12141D"/>
<mask id="mask1_23_14356" style="mask-type:alpha" maskUnits="userSpaceOnUse" x="-14" y="7" width="68" height="77">
<path fill-rule="evenodd" clip-rule="evenodd" d="M31.0727 75.1757C26.5791 77.5148 21.1352 75.0372 16.1545 75.9627C7.81896 77.5116 -0.536422 86.4672 -7.99457 82.4352C-14.7998 78.7562 -14.0615 67.852 -13.0301 60.185C-12.1459 53.6128 -6.53208 48.9978 -2.7624 43.542C-0.418323 40.1494 3.45442 37.9876 4.95971 34.1486C7.52152 27.615 4.23867 19.0869 8.88773 13.8298C13.4667 8.65193 21.725 5.69076 28.333 7.71835C35.0538 9.78055 36.8129 18.4856 41.4062 23.8077C45.1837 28.1847 52.564 30.5396 53.0044 36.3046C53.4734 42.4448 46.2087 46.2536 43.5447 51.8057C41.7346 55.5784 41.879 59.9058 39.9088 63.5974C37.5834 67.9548 35.4537 72.8951 31.0727 75.1757Z" fill="#C4C4C4"/>
</mask>
<g mask="url(#mask1_23_14356)">
<path fill-rule="evenodd" clip-rule="evenodd" d="M25.1269 72.3941C20.6326 74.7333 15.1885 72.2568 10.2073 73.1827C1.87077 74.7324 -6.48647 83.6872 -13.9448 79.6569C-20.7503 75.9794 -20.0105 65.0774 -18.9781 57.4118C-18.0931 50.8407 -12.4781 46.226 -8.70743 40.7709C-6.36272 37.3787 -2.48936 35.2168 -0.983468 31.3784C1.57938 24.8458 -1.70274 16.3198 2.94739 11.0632C7.52743 5.88582 15.7868 2.92423 22.3952 4.95061C29.1164 7.01158 30.8746 15.7146 35.4676 21.0351C39.245 25.4108 46.6257 27.7644 47.0653 33.5281C47.5337 39.667 40.2679 43.476 37.603 49.0273C35.7922 52.7994 35.9361 57.1259 33.9653 60.8171C31.6391 65.1739 29.5086 70.1135 25.1269 72.3941Z" stroke="#F1DFD5" stroke-width="4.30886"/>
<path fill-rule="evenodd" clip-rule="evenodd" d="M16.5196 64.4153C12.6073 66.4516 7.86809 64.296 3.53179 65.1021C-3.72537 66.4511 -11.0007 74.2462 -17.4933 70.738C-23.4175 67.537 -22.7734 58.047 -21.8745 51.3742C-21.104 45.6542 -16.216 41.6371 -12.9334 36.8884C-10.8922 33.9356 -7.52035 32.0536 -6.20938 28.7123C-3.97826 23.0258 -6.83528 15.6041 -2.78716 11.0283C1.19995 6.52137 8.38998 3.94324 14.1427 5.70706C19.9936 7.50099 21.524 15.0768 25.5223 19.7081C28.8105 23.517 35.2355 25.5656 35.6182 30.5828C36.0258 35.9266 29.7007 39.2424 27.3807 44.0747C25.8043 47.3583 25.9295 51.1245 24.2139 54.3376C22.1888 58.1301 20.3341 62.43 16.5196 64.4153Z" stroke="#F1DFD5" stroke-width="4.30886"/>
<path fill-rule="evenodd" clip-rule="evenodd" d="M6.79271 58.4834C3.31715 60.2938 -0.896018 58.3713 -4.74914 59.086C-11.1977 60.2822 -17.6579 67.2175 -23.4303 64.0896C-28.6973 61.2355 -28.1314 52.7866 -27.3371 46.8461C-26.6562 41.7539 -22.315 38.1806 -19.401 33.9549C-17.589 31.3272 -14.5937 29.654 -13.431 26.6799C-11.452 21.6185 -13.9961 15.0087 -10.4017 10.9374C-6.86142 6.92742 -0.473396 4.63689 4.64026 6.21123C9.84121 7.81243 11.2065 14.5586 14.7628 18.6847C17.6877 22.0782 23.399 23.9066 23.7425 28.3739C24.1084 33.132 18.4895 36.0799 16.4311 40.3807C15.0324 43.3032 15.1462 46.6564 13.6237 49.516C11.8266 52.8913 10.1813 56.7184 6.79271 58.4834Z" stroke="#F1DFD5" stroke-width="4.30886"/>
</g>
</g>
</svg>
