<svg width="53" height="54" viewBox="0 0 53 54" fill="none" xmlns="http://www.w3.org/2000/svg">
<path d="M52.8846 26.9999C52.8846 12.3947 41.0475 0.557617 26.4423 0.557617C11.8371 0.557617 0 12.3947 0 26.9999C0 40.2005 9.66797 51.1389 22.3107 53.1221V34.6434H15.5968V26.9999H22.3107V21.1744C22.3107 14.5482 26.2564 10.8866 32.2988 10.8866C35.191 10.8866 38.2174 11.4031 38.2174 11.4031V17.9104H34.8812C31.5965 17.9104 30.5739 19.9504 30.5739 22.042V26.9999H37.9075L36.7352 34.6434H30.5739V53.1221C43.2166 51.1389 52.8846 40.2005 52.8846 26.9999Z" fill="#1877F2"/>
<path d="M36.7361 34.6435L37.9084 27H30.5748V22.0421C30.5748 19.9505 31.5973 17.9105 34.882 17.9105H38.2183V11.4032C38.2183 11.4032 35.1918 10.8867 32.2997 10.8867C26.2573 10.8867 22.3116 14.5483 22.3116 21.1744V27H15.5977V34.6435H22.3116V53.1221C23.6595 53.3339 25.0384 53.4423 26.4432 53.4423C27.8479 53.4423 29.2269 53.3339 30.5748 53.1221V34.6435H36.7361Z" fill="white"/>
</svg>
