<svg width="54" height="54" viewBox="0 0 54 54" fill="none" xmlns="http://www.w3.org/2000/svg">
<g opacity="0.8">
<circle cx="27.1728" cy="27.0195" r="26.4423" fill="url(#paint0_linear_1_13968)"/>
<path d="M35.8732 16.4424H19.7942C17.9788 16.4424 16.5957 17.8255 16.5957 19.6409V35.7198C16.5957 37.5352 17.9788 38.9183 19.7942 38.9183H35.8732C37.6885 38.9183 39.0717 37.5352 39.0717 35.7198V19.6409C39.0717 17.8255 37.6885 16.4424 35.8732 16.4424ZM27.8337 34.4232C31.5509 34.4232 34.5765 31.484 34.5765 27.9397C34.5765 27.3346 34.49 26.643 34.3171 26.1243H36.2189V35.2876C36.2189 35.7198 35.8732 36.1521 35.3545 36.1521H20.3129C19.8807 36.1521 19.4484 35.8063 19.4484 35.2876V26.0379H21.4367C21.2638 26.643 21.1773 27.2481 21.1773 27.8533C21.0909 31.484 24.1165 34.4232 27.8337 34.4232ZM27.8337 31.8298C25.4132 31.8298 23.5114 29.928 23.5114 27.5939C23.5114 25.2599 25.4132 23.3581 27.8337 23.3581C30.2542 23.3581 32.156 25.2599 32.156 27.5939C32.156 30.0144 30.2542 31.8298 27.8337 31.8298ZM36.1325 22.58C36.1325 23.0987 35.7003 23.531 35.1816 23.531H32.7611C32.2424 23.531 31.8102 23.0987 31.8102 22.58V20.246C31.8102 19.7273 32.2424 19.2951 32.7611 19.2951H35.1816C35.7003 19.2951 36.1325 19.7273 36.1325 20.246V22.58Z" fill="white"/>
</g>
<defs>
<linearGradient id="paint0_linear_1_13968" x1="11.9684" y1="47.5122" x2="47.0045" y2="11.1541" gradientUnits="userSpaceOnUse">
<stop stop-color="#EEA054"/>
<stop offset="0.502762" stop-color="#D64763"/>
<stop offset="1" stop-color="#B62A99"/>
</linearGradient>
</defs>
</svg>
