<svg width="32" height="32" viewBox="0 0 32 32" fill="none" xmlns="http://www.w3.org/2000/svg">
<path d="M0.269531 16.0002C0.269531 7.23794 7.37271 0.134766 16.1349 0.134766C24.8971 0.134766 32.0003 7.23794 32.0003 16.0002C32.0003 24.7624 24.8971 31.8655 16.1349 31.8655C7.37271 31.8655 0.269531 24.7624 0.269531 16.0002Z" fill="#00B900"/>
<path d="M16.3988 7.53906C11.0046 7.53906 6.61523 11.075 6.61523 15.4213C6.61523 19.3178 10.0959 22.581 14.7975 23.1981C15.1161 23.2662 15.5497 23.4066 15.6595 23.677C15.7581 23.9226 15.724 24.3073 15.691 24.5553C15.691 24.5553 15.5762 25.2407 15.5514 25.3867C15.5089 25.6323 15.3549 26.3471 16.3988 25.9103C17.4431 25.4734 22.0333 22.6165 24.0859 20.271C25.5034 18.7274 26.1825 17.1608 26.1825 15.4213C26.1825 11.075 21.7938 7.53906 16.3988 7.53906Z" fill="white"/>
<path d="M13.6792 13.3555C13.575 13.3555 13.4902 13.4429 13.4902 13.5504V17.9201C13.4902 18.0278 13.575 18.1151 13.6792 18.1151H14.3591C14.4634 18.1151 14.5479 18.0278 14.5479 17.9201V13.5504C14.5479 13.4429 14.4634 13.3555 14.3591 13.3555H13.6792Z" fill="#00B900"/>
<path d="M19.1101 13.3555H18.3944C18.2847 13.3555 18.1956 13.4429 18.1956 13.5504V16.1465L16.1581 13.4422C16.1534 13.4353 16.1481 13.4287 16.1427 13.4224L16.1413 13.4212C16.1374 13.4168 16.1335 13.413 16.1294 13.4091C16.1282 13.408 16.127 13.407 16.1256 13.4058C16.1223 13.4028 16.1188 13.3999 16.1151 13.3972C16.1135 13.3956 16.1118 13.3945 16.11 13.3931C16.1065 13.3908 16.1031 13.3883 16.0996 13.3862C16.0977 13.3849 16.0957 13.3837 16.0936 13.3828C16.09 13.3807 16.0865 13.3785 16.083 13.3768C16.0808 13.3758 16.0789 13.3747 16.0767 13.3739C16.073 13.3722 16.0693 13.3705 16.0654 13.3691C16.063 13.3683 16.0611 13.3676 16.0589 13.3668C16.055 13.3655 16.0511 13.3641 16.047 13.3632C16.0449 13.3624 16.0425 13.362 16.0402 13.3612C16.0362 13.3605 16.0325 13.3595 16.0288 13.3587C16.0261 13.3584 16.0231 13.358 16.0204 13.3578C16.0169 13.357 16.0134 13.3568 16.0098 13.3564C16.0065 13.356 16.0032 13.356 15.9997 13.3559C15.9971 13.3559 15.9952 13.3555 15.9926 13.3555H15.2771C15.1673 13.3555 15.0781 13.4429 15.0781 13.5504V17.9201C15.0781 18.0278 15.1673 18.1151 15.2771 18.1151H15.9926C16.1026 18.1151 16.1916 18.0278 16.1916 17.9201V15.3248L18.2316 18.0326C18.2457 18.0522 18.2631 18.0682 18.2821 18.0809C18.2827 18.0812 18.2835 18.0818 18.2841 18.0824C18.2882 18.0849 18.2923 18.0874 18.2964 18.0897C18.2983 18.0909 18.3001 18.0916 18.3021 18.0926C18.305 18.0943 18.3083 18.0959 18.3115 18.0972C18.3148 18.0986 18.3177 18.0999 18.3212 18.1012C18.3232 18.102 18.3251 18.1028 18.3271 18.1034C18.3318 18.1051 18.3361 18.1064 18.3406 18.1078C18.3416 18.1078 18.3426 18.1082 18.3435 18.1084C18.3598 18.1126 18.3768 18.1151 18.3944 18.1151H19.1101C19.2201 18.1151 19.3089 18.0278 19.3089 17.9201V13.5504C19.3089 13.4429 19.2201 13.3555 19.1101 13.3555Z" fill="#00B900"/>
<path d="M12.7689 17.0209H10.8738V13.5508C10.8738 13.4429 10.7871 13.3555 10.6804 13.3555H9.98272C9.87579 13.3555 9.78906 13.4429 9.78906 13.5508V17.9196V17.92C9.78906 17.9724 9.80984 18.0199 9.8432 18.0549C9.84396 18.0559 9.84472 18.0568 9.84586 18.0578C9.84682 18.0588 9.84777 18.0595 9.84872 18.0605C9.8836 18.0943 9.93049 18.1151 9.98253 18.1151H12.7689C12.8758 18.1151 12.9621 18.0274 12.9621 17.9196V17.2162C12.9621 17.1083 12.8758 17.0209 12.7689 17.0209Z" fill="#00B900"/>
<path d="M22.8157 14.4497C22.9227 14.4497 23.009 14.3624 23.009 14.2544V13.551C23.009 13.4431 22.9227 13.3555 22.8157 13.3555H20.0296H20.0292C19.977 13.3555 19.9299 13.3766 19.895 13.4106C19.8943 13.4114 19.8933 13.412 19.8927 13.4128C19.8916 13.4139 19.8906 13.4151 19.8897 13.4162C19.8565 13.4512 19.8359 13.4985 19.8359 13.5508V13.551V17.9198V17.92C19.8359 17.9724 19.8567 18.0199 19.8901 18.0549C19.8908 18.0559 19.8918 18.057 19.8927 18.0578C19.8935 18.0588 19.8946 18.0597 19.8956 18.0605C19.9303 18.0941 19.9774 18.1151 20.0292 18.1151H22.8157C22.9227 18.1151 23.009 18.0274 23.009 17.9198V17.2162C23.009 17.1085 22.9227 17.0209 22.8157 17.0209H20.9209V16.2823H22.8157C22.9227 16.2823 23.009 16.1948 23.009 16.087V15.3836C23.009 15.2757 22.9227 15.1881 22.8157 15.1881H20.9209V14.4497H22.8157Z" fill="#00B900"/>
</svg>
