<svg width="19" height="14" viewBox="0 0 19 14" fill="none" xmlns="http://www.w3.org/2000/svg">
<path d="M0.392303 1.61798C2.96897 3.60979 7.49021 7.11401 8.81907 8.20662C8.99745 8.35409 9.18879 8.42906 9.38742 8.42906C9.58565 8.42906 9.77665 8.35479 9.95464 8.20803C11.2846 7.11434 15.8059 3.60979 18.3826 1.61798C18.543 1.49421 18.5675 1.27665 18.4376 1.12534C18.1373 0.775679 17.6897 0.575195 17.2099 0.575195H1.56491C1.08518 0.575195 0.637503 0.775679 0.337301 1.12537C0.207423 1.27665 0.231881 1.49421 0.392303 1.61798Z" fill="#86E7B8"/>
<path d="M18.5472 2.69442C18.4085 2.63551 18.2454 2.65606 18.1301 2.74603C15.2726 4.9571 11.6257 7.79125 10.4783 8.73499C9.83427 9.26562 8.94048 9.26562 8.29498 8.73429C7.07195 7.72846 2.97657 4.55058 0.643965 2.74599C0.527837 2.65603 0.364371 2.63618 0.226865 2.69438C0.0886267 2.75299 0 2.8792 0 3.0183V11.9965C0 12.7842 0.701644 13.4246 1.56452 13.4246H17.2096C18.0724 13.4246 18.7741 12.7842 18.7741 11.9965V3.0183C18.7741 2.8792 18.6854 2.75265 18.5472 2.69442Z" fill="#86E7B8"/>
</svg>
