<svg width="375" height="651" viewBox="0 0 375 651" fill="none" xmlns="http://www.w3.org/2000/svg">
<rect width="375" height="651" fill="#F1DFD5"/>
<mask id="mask0_23_14683" style="mask-type:alpha" maskUnits="userSpaceOnUse" x="0" y="0" width="375" height="651">
<rect width="375" height="651" fill="#F1DFD5"/>
</mask>
<g mask="url(#mask0_23_14683)">
<path fill-rule="evenodd" clip-rule="evenodd" d="M367.046 613.288C361.604 614.016 356.968 609.484 351.549 608.591C342.481 607.097 330.663 613.146 324.547 606.287C318.966 600.028 323.738 589.185 327.616 581.749C330.94 575.376 338.364 572.741 344.218 568.569C347.858 565.975 352.602 565.199 355.552 561.841C360.572 556.125 360.369 546.221 367.046 542.576C373.623 538.986 383.133 539.012 389.121 543.515C395.212 548.095 393.796 557.617 396.516 564.735C398.754 570.589 405.409 575.711 403.732 581.749C401.947 588.181 393.137 589.386 388.375 594.064C385.139 597.242 383.691 601.706 380.322 604.743C376.345 608.328 372.353 612.579 367.046 613.288Z" fill="#FF6A61"/>
<mask id="mask1_23_14683" style="mask-type:alpha" maskUnits="userSpaceOnUse" x="322" y="540" width="82" height="74">
<path fill-rule="evenodd" clip-rule="evenodd" d="M367.046 613.288C361.604 614.016 356.968 609.484 351.549 608.591C342.481 607.097 330.663 613.146 324.547 606.287C318.966 600.028 323.738 589.185 327.616 581.749C330.94 575.376 338.364 572.741 344.218 568.569C347.858 565.975 352.602 565.199 355.552 561.841C360.572 556.125 360.369 546.221 367.046 542.576C373.623 538.986 383.133 539.012 389.121 543.515C395.212 548.095 393.796 557.617 396.516 564.735C398.754 570.589 405.409 575.711 403.732 581.749C401.947 588.181 393.137 589.386 388.375 594.064C385.139 597.242 383.691 601.706 380.322 604.743C376.345 608.328 372.353 612.579 367.046 613.288Z" fill="#C4C4C4"/>
</mask>
<g mask="url(#mask1_23_14683)">
<path fill-rule="evenodd" clip-rule="evenodd" d="M362.012 608.259C356.569 608.987 351.932 604.456 346.513 603.563C337.444 602.07 325.624 608.117 319.507 601.259C313.925 595.002 318.698 584.161 322.576 576.728C325.901 570.356 333.326 567.722 339.18 563.551C342.821 560.957 347.566 560.182 350.516 556.824C355.537 551.11 355.334 541.209 362.012 537.564C368.589 533.975 378.101 534.001 384.09 538.503C390.181 543.081 388.765 552.601 391.486 559.718C393.724 565.571 400.379 570.691 398.703 576.728C396.917 583.158 388.107 584.363 383.344 589.039C380.107 592.217 378.659 596.68 375.289 599.716C371.312 603.3 367.319 607.55 362.012 608.259Z" stroke="#F1DFD5" stroke-width="1.38048"/>
<path fill-rule="evenodd" clip-rule="evenodd" d="M356.179 596.953C351.44 597.586 347.404 593.642 342.687 592.865C334.792 591.565 324.502 596.829 319.177 590.86C314.318 585.413 318.473 575.976 321.849 569.506C324.743 563.959 331.207 561.666 336.303 558.036C339.473 555.778 343.603 555.103 346.172 552.18C350.542 547.206 350.366 538.587 356.179 535.415C361.905 532.291 370.184 532.313 375.398 536.232C380.701 540.217 379.469 548.504 381.837 554.699C383.785 559.794 389.579 564.25 388.119 569.506C386.565 575.103 378.895 576.152 374.749 580.222C371.931 582.988 370.671 586.874 367.737 589.516C364.275 592.636 360.799 596.335 356.179 596.953Z" stroke="#F1DFD5" stroke-width="1.38048"/>
<path fill-rule="evenodd" clip-rule="evenodd" d="M348.452 587.32C344.241 587.884 340.655 584.371 336.464 583.679C329.45 582.521 320.308 587.21 315.577 581.893C311.26 577.042 314.951 568.638 317.951 562.876C320.522 557.936 326.265 555.894 330.793 552.66C333.608 550.65 337.279 550.048 339.56 547.445C343.443 543.015 343.287 535.34 348.452 532.515C353.539 529.732 360.895 529.752 365.527 533.242C370.238 536.791 369.143 544.172 371.247 549.689C372.978 554.226 378.126 558.195 376.829 562.876C375.448 567.861 368.634 568.794 364.95 572.42C362.447 574.883 361.327 578.343 358.72 580.697C355.644 583.475 352.556 586.77 348.452 587.32Z" stroke="#F1DFD5" stroke-width="1.38048"/>
</g>
<path fill-rule="evenodd" clip-rule="evenodd" d="M18.9755 152.006C18.8939 151.521 18.8324 151.042 18.7926 150.563C18.7327 149.844 18.7697 149.12 18.7485 148.401C18.7393 148.096 18.7028 147.302 18.7175 147.187C18.8509 146.191 19.655 146.038 19.8902 146.011C20.004 145.995 21.1724 145.864 21.4245 147.16C21.7338 148.744 21.8329 150.34 21.7234 151.902C21.9788 153.231 22.4155 154.554 22.992 155.752C25.2864 160.516 29.6584 160.978 34.3952 160.935C35.1237 160.924 35.7286 161.496 35.7667 162.22C35.8048 162.949 35.2626 163.581 34.5373 163.646C31.8896 163.902 27.192 166.026 25.5679 168.236C25.2281 168.699 25.0305 169.815 24.7691 170.909C24.4044 172.428 23.9704 173.931 23.4842 174.563C23.4113 174.661 22.5243 175.663 22.2597 175.81C21.6238 176.158 21.1147 175.957 20.8256 175.771C20.5365 175.586 20.2093 175.222 20.0786 174.617C19.942 173.986 20.0574 172.69 20.0362 172.412C19.9588 171.405 19.7574 169.428 19.3463 167.73C19.1247 166.815 18.8884 165.971 18.4975 165.552C17.0503 164 14.7364 164.229 12.7878 164.485C12.564 164.512 12.3402 164.545 12.117 164.572C11.3237 164.806 10.4814 164.98 9.59121 165.084C8.24694 165.242 8.0259 164.006 8.01392 163.924C7.98888 163.744 7.89576 162.819 8.90901 162.448C9.01953 162.41 9.83514 162.231 10.1493 162.16C10.587 162.062 11.0297 161.986 11.474 161.915C16.0632 160.488 18.5558 156.481 18.9755 152.006ZM20.5507 156.955C22.2832 160.537 24.9123 162.269 28.0288 163.053H28.0283C26.0824 164.071 24.3123 165.345 23.3742 166.625C23.0182 167.109 22.6915 168.084 22.3969 169.178C22.2374 168.16 22.0218 167.076 21.7371 166.151C21.4131 165.095 20.977 164.218 20.4902 163.695C19.5505 162.688 18.3712 162.127 17.1031 161.85C18.6211 160.505 19.7721 158.828 20.5507 156.955Z" fill="black"/>
</g>
</svg>
