<svg width="16" height="16" viewBox="0 0 16 16" fill="none" xmlns="http://www.w3.org/2000/svg">
<path d="M14.7208 10.5038C13.7409 10.5038 12.7788 10.3505 11.8671 10.0491C11.4203 9.89672 10.8711 10.0366 10.5984 10.3167L8.79879 11.6756C6.71175 10.5612 5.42618 9.27566 4.32733 7.20366L5.64587 5.4504C5.98844 5.10819 6.11131 4.60829 5.9641 4.13925C5.6615 3.22242 5.50779 2.26045 5.50779 1.27984C5.50783 0.571436 4.93169 -0.00488281 4.22355 -0.00488281H1.28428C0.576141 -0.00488281 0 0.571436 0 1.27979C0 9.39945 6.60368 16.0051 14.7208 16.0051C15.429 16.0051 16.0051 15.4288 16.0051 14.7204V11.7885C16.0051 11.0802 15.4289 10.5038 14.7208 10.5038Z" fill="#86E7B8"/>
</svg>
