<svg width="19" height="18" viewBox="0 0 19 18" fill="none" xmlns="http://www.w3.org/2000/svg">
<path d="M9.50098 2.55029C13.0631 2.5504 15.9512 5.43832 15.9512 9.00049C15.9511 12.5626 13.0631 15.4506 9.50098 15.4507C5.9388 15.4507 3.05089 12.5626 3.05078 9.00049C3.05078 5.43825 5.93874 2.55029 9.50098 2.55029ZM9.51562 5.82764C9.00934 5.49021 8.35871 5.45851 7.82227 5.74561C7.28576 6.03274 6.95117 6.59217 6.95117 7.20068V10.8003C6.95117 11.4088 7.28576 11.9682 7.82227 12.2554C8.35861 12.5423 9.00942 12.5106 9.51562 12.1733L12.2158 10.3735C12.6748 10.0676 12.9511 9.5521 12.9512 9.00049C12.9512 8.44881 12.6749 7.93346 12.2158 7.62744L9.51562 5.82764Z" fill="#12141D" stroke="#12141D" stroke-width="1.5"/>
</svg>
