<svg width="1600" height="750" viewBox="0 0 1600 750" fill="none" xmlns="http://www.w3.org/2000/svg">
<rect width="1600" height="750" fill="#F1DFD5"/>
<mask id="mask0_1_13584" style="mask-type:alpha" maskUnits="userSpaceOnUse" x="0" y="0" width="1600" height="750">
<rect width="1600" height="750" fill="#F1DFD5"/>
</mask>
<g mask="url(#mask0_1_13584)">
<path fill-rule="evenodd" clip-rule="evenodd" d="M407.198 706.788C407.011 705.676 406.869 704.576 406.778 703.476C406.641 701.826 406.726 700.163 406.677 698.513C406.656 697.813 406.572 695.988 406.606 695.726C406.912 693.438 408.758 693.088 409.298 693.026C409.559 692.988 412.242 692.688 412.821 695.663C413.531 699.301 413.758 702.963 413.507 706.551C414.093 709.601 415.096 712.638 416.419 715.388C421.687 726.326 431.724 727.388 442.599 727.288C444.272 727.263 445.661 728.576 445.748 730.238C445.836 731.913 444.591 733.363 442.926 733.513C436.847 734.101 426.062 738.976 422.333 744.051C421.553 745.113 421.099 747.676 420.499 750.188C419.662 753.676 418.666 757.126 417.549 758.576C417.382 758.801 415.346 761.101 414.738 761.438C413.278 762.238 412.109 761.776 411.446 761.351C410.782 760.926 410.031 760.088 409.731 758.701C409.417 757.251 409.682 754.276 409.633 753.638C409.456 751.326 408.993 746.788 408.049 742.888C407.541 740.788 406.998 738.851 406.101 737.888C402.778 734.326 397.466 734.851 392.992 735.438C392.478 735.501 391.964 735.576 391.452 735.638C389.631 736.176 387.697 736.576 385.653 736.813C382.567 737.176 382.059 734.338 382.032 734.151C381.974 733.738 381.761 731.613 384.087 730.763C384.341 730.676 386.213 730.263 386.934 730.101C387.939 729.876 388.956 729.701 389.976 729.538C400.512 726.263 406.234 717.063 407.198 706.788ZM410.814 718.151C414.792 726.376 420.828 730.351 427.983 732.151H427.982C423.514 734.488 419.451 737.413 417.297 740.351C416.479 741.463 415.729 743.701 415.053 746.213C414.687 743.876 414.192 741.388 413.538 739.263C412.794 736.838 411.793 734.826 410.676 733.626C408.518 731.313 405.811 730.026 402.899 729.388C406.384 726.301 409.027 722.451 410.814 718.151Z" fill="#86E7B8"/>
<path fill-rule="evenodd" clip-rule="evenodd" d="M1232.42 37.3843C1220.08 43.8061 1205.13 37.004 1191.46 39.5449C1168.58 43.7973 1145.64 68.3839 1125.16 57.3145C1106.48 47.2141 1108.5 17.278 1111.34 -3.77099C1113.76 -21.8144 1129.18 -34.4843 1139.53 -49.4627C1145.96 -58.7766 1156.59 -64.7116 1160.73 -75.2513C1167.76 -93.1886 1158.75 -116.602 1171.51 -131.034C1184.08 -145.25 1206.75 -153.379 1224.89 -147.813C1243.35 -142.151 1248.18 -118.252 1260.79 -103.641C1271.16 -91.6246 1291.42 -85.1593 1292.63 -69.3323C1293.91 -52.475 1273.97 -42.0182 1266.66 -26.7755C1261.69 -16.4181 1262.08 -4.53768 1256.67 5.59736C1250.29 17.5601 1244.44 31.1233 1232.42 37.3843Z" fill="#12141D"/>
<mask id="mask1_1_13584" style="mask-type:alpha" maskUnits="userSpaceOnUse" x="1109" y="-150" width="184" height="211">
<path fill-rule="evenodd" clip-rule="evenodd" d="M1232.42 37.3847C1220.08 43.8065 1205.13 37.0044 1191.46 39.5453C1168.58 43.7977 1145.64 68.3842 1125.16 57.3148C1106.48 47.2144 1108.5 17.2784 1111.34 -3.77063C1113.76 -21.8141 1129.18 -34.4839 1139.53 -49.4623C1145.96 -58.7762 1156.59 -64.7113 1160.73 -75.251C1167.76 -93.1883 1158.75 -116.601 1171.51 -131.034C1184.08 -145.249 1206.75 -153.379 1224.89 -147.812C1243.35 -142.151 1248.18 -118.252 1260.79 -103.641C1271.16 -91.6243 1291.42 -85.159 1292.63 -69.3319C1293.91 -52.4746 1273.97 -42.0178 1266.66 -26.7752C1261.69 -16.4177 1262.08 -4.53731 1256.67 5.59773C1250.29 17.5605 1244.44 31.1237 1232.42 37.3847Z" fill="#C4C4C4"/>
</mask>
<g mask="url(#mask1_1_13584)">
<path fill-rule="evenodd" clip-rule="evenodd" d="M1216.09 29.744C1203.75 36.1661 1188.81 29.3671 1175.13 31.9092C1152.24 36.1635 1129.3 60.7479 1108.82 49.6832C1090.14 39.5871 1092.17 9.65682 1095.01 -11.3883C1097.44 -29.4284 1112.85 -42.0976 1123.2 -57.0742C1129.64 -66.3871 1140.27 -72.3222 1144.41 -82.8603C1151.44 -100.795 1142.43 -124.202 1155.2 -138.633C1167.77 -152.847 1190.45 -160.978 1208.59 -155.415C1227.04 -149.757 1231.87 -125.863 1244.48 -111.257C1254.85 -99.2437 1275.11 -92.7822 1276.32 -76.9585C1277.61 -60.1047 1257.66 -49.6476 1250.34 -34.4071C1245.37 -24.0511 1245.77 -12.1732 1240.36 -2.0395C1233.97 9.92166 1228.12 23.4828 1216.09 29.744Z" stroke="#F1DFD5" stroke-width="4.30886"/>
<path fill-rule="evenodd" clip-rule="evenodd" d="M1192.46 7.83979C1181.72 13.4302 1168.71 7.51216 1156.8 9.72519C1136.88 13.4289 1116.91 34.8296 1099.08 25.1983C1082.82 16.4101 1084.59 -9.64373 1087.05 -27.9632C1089.17 -43.6668 1102.59 -54.6954 1111.6 -67.7324C1117.2 -75.8392 1126.46 -81.0058 1130.06 -90.1791C1136.19 -105.791 1128.34 -126.166 1139.46 -138.729C1150.4 -151.102 1170.14 -158.18 1185.93 -153.338C1202 -148.413 1206.2 -127.614 1217.18 -114.899C1226.2 -104.442 1243.84 -98.8181 1244.89 -85.0439C1246.01 -70.373 1228.65 -61.2699 1222.28 -48.0032C1217.95 -38.9884 1218.29 -28.6489 1213.58 -19.8276C1208.02 -9.41554 1202.93 2.38929 1192.46 7.83979Z" stroke="#F1DFD5" stroke-width="4.30886"/>
<path fill-rule="evenodd" clip-rule="evenodd" d="M1165.76 -8.44664C1156.22 -3.47654 1144.65 -8.75457 1134.07 -6.79235C1116.37 -3.5084 1098.63 15.5319 1082.78 6.94458C1068.32 -0.891021 1069.88 -24.0867 1072.06 -40.3956C1073.93 -54.3758 1085.85 -64.1858 1093.85 -75.7871C1098.82 -83.0011 1107.04 -87.5948 1110.24 -95.7598C1115.67 -109.655 1108.68 -127.802 1118.55 -138.979C1128.27 -149.988 1145.81 -156.277 1159.85 -151.954C1174.13 -147.558 1177.88 -129.038 1187.64 -117.71C1195.67 -108.393 1211.35 -103.374 1212.29 -91.1092C1213.3 -78.0463 1197.87 -69.9533 1192.22 -58.1457C1188.38 -50.1224 1188.69 -40.9164 1184.51 -33.0657C1179.58 -23.7992 1175.06 -13.2923 1165.76 -8.44664Z" stroke="#F1DFD5" stroke-width="4.30886"/>
</g>
</g>
</svg>
