<svg width="46" height="45" viewBox="0 0 46 45" fill="none" xmlns="http://www.w3.org/2000/svg">
<path fill-rule="evenodd" clip-rule="evenodd" d="M4.06705 23.409C5.48456 17.6454 5.39174 12.0951 5.56162 6.24895C5.59463 5.10724 4.69776 4.15804 3.55948 4.12365C2.42052 4.08926 1.46999 4.99028 1.43628 6.132C1.27534 11.6755 1.40535 16.9507 0.0600538 22.4255C-0.212307 23.5328 0.465171 24.6539 1.57112 24.9221C2.67638 25.1972 3.79538 24.5163 4.06705 23.409Z" fill="#12141D"/>
<path fill-rule="evenodd" clip-rule="evenodd" d="M16.1094 34.578C25.7259 25.7882 34.7868 14.4812 41.1198 3.06403C41.6721 2.06675 41.3124 0.80806 40.3165 0.257835C39.3206 -0.292389 38.0633 0.0652885 37.511 1.06257C31.3871 12.1014 22.6241 23.0372 13.3253 31.5312C12.4848 32.3015 12.4264 33.6083 13.1946 34.4474C13.9629 35.2865 15.2689 35.3484 16.1094 34.578Z" fill="#12141D"/>
<path fill-rule="evenodd" clip-rule="evenodd" d="M18.5458 44.1796C27.3411 45.6308 36.4067 43.1548 44.4042 39.654C45.4476 39.1932 45.9235 37.9759 45.4675 36.9374C45.0108 35.8919 43.7928 35.4173 42.7494 35.8713C35.4658 39.0626 27.2283 41.4285 19.2177 40.108C18.0939 39.9223 17.0313 40.6857 16.8463 41.8068C16.6606 42.9279 17.4226 43.9939 18.5458 44.1796Z" fill="#12141D"/>
</svg>
