<svg width="40" height="40" viewBox="0 0 40 40" fill="none" xmlns="http://www.w3.org/2000/svg">
<path d="M0 20C0 8.95433 8.95433 0 20 0C31.0457 0 40 8.95433 40 20C40 31.0457 31.0457 40 20 40C8.95433 40 0 31.0457 0 20Z" fill="#FFE400"/>
<path d="M30.7266 25.729C26.8551 23.8549 26.2381 20.9614 26.2106 20.7468C26.1775 20.4868 26.1398 20.2824 26.4266 20.018C26.7031 19.7625 27.9301 19.003 28.2706 18.7654C28.8333 18.372 29.0811 17.9791 28.8985 17.4962C28.7707 17.1621 28.4596 17.0363 28.132 17.0363C28.0286 17.0366 27.9256 17.0482 27.8248 17.0708C27.2065 17.205 26.6061 17.5147 26.2586 17.5985C26.2168 17.6092 26.174 17.615 26.1308 17.6156C25.9456 17.6156 25.8753 17.5333 25.8932 17.3104C25.9366 16.6345 26.0286 15.3155 25.922 14.0835C25.7757 12.3882 25.2289 11.5483 24.5806 10.8054C24.267 10.4451 22.8106 8.89746 20.0002 8.89746C17.1897 8.89746 15.7353 10.4451 15.4236 10.801C14.7734 11.5438 14.2272 12.3837 14.0822 14.079C13.9756 15.3111 14.0714 16.6295 14.111 17.3059C14.1237 17.518 14.0586 17.6112 13.8734 17.6112C13.8302 17.6105 13.7874 17.6046 13.7456 17.594C13.3988 17.5103 12.7984 17.2005 12.1801 17.0664C12.0792 17.0437 11.9762 17.0322 11.8728 17.0319C11.5439 17.0319 11.2341 17.1596 11.1063 17.4917C10.9236 17.9746 11.1702 18.3675 11.7349 18.761C12.0753 18.9985 13.3023 19.7574 13.5789 20.0135C13.8651 20.278 13.8281 20.4824 13.7948 20.7423C13.7673 20.9601 13.1496 23.8536 9.27889 25.7245C9.05214 25.8344 8.66639 26.0669 9.34664 26.4425C10.4146 27.0326 11.1255 26.9694 11.6781 27.3252C12.1469 27.6273 11.8696 28.2788 12.2107 28.5139C12.6297 28.8032 13.8682 28.4935 15.4683 29.0217C16.8096 29.4637 17.6247 30.7125 20.0034 30.7125C22.3821 30.7125 23.2207 29.458 24.5385 29.0217C26.1353 28.4935 27.3764 28.8032 27.7961 28.5139C28.1365 28.2788 27.8599 27.6273 28.3287 27.3252C28.8812 26.9694 29.5916 27.0326 30.6601 26.4425C31.3391 26.0713 30.9533 25.8388 30.7266 25.729Z" fill="white"/>
<path fill-rule="evenodd" clip-rule="evenodd" d="M31.5292 24.5736C31.906 24.7831 32.2369 25.036 32.4106 25.5087C32.6054 26.0376 32.486 26.6367 32.0107 27.1452L32.0044 27.1528C31.8126 27.365 31.5857 27.5427 31.3337 27.6778C30.8336 27.9524 30.3016 28.1644 29.7497 28.3089C29.644 28.3372 29.5437 28.3829 29.4532 28.4443C29.3587 28.5279 29.3195 28.632 29.2706 28.7617C29.2335 28.8598 29.191 28.9726 29.1147 29.1023C28.9838 29.3303 28.8041 29.5267 28.5884 29.6771C28.0722 30.0335 27.4923 30.0559 26.8778 30.0795L26.876 30.0796C26.3214 30.1006 25.6928 30.1245 24.975 30.3618C24.6857 30.4577 24.3784 30.6461 24.0227 30.8645L24.0204 30.8659C23.1539 31.3966 21.9681 32.1228 19.9986 32.1228C18.0274 32.1228 16.8496 31.3992 15.9892 30.8703C15.6309 30.648 15.3217 30.4577 15.0241 30.3593C14.3055 30.1223 13.6763 30.098 13.1212 30.077H13.1212C12.5068 30.0533 11.9268 30.031 11.4107 29.6746C11.2286 29.5481 11.0717 29.3887 10.9482 29.2044C10.8284 29.0307 10.7732 28.8839 10.7267 28.7603C10.6778 28.6303 10.6385 28.5259 10.5439 28.4431C10.4474 28.3786 10.3407 28.3309 10.2284 28.3019C9.68392 28.1578 9.159 27.9478 8.66542 27.6766C8.42817 27.5503 8.21256 27.3871 8.02667 27.1931C7.52014 26.6731 7.38984 26.0561 7.58912 25.5138C7.81483 24.9004 8.30387 24.6552 8.81681 24.3979C8.90485 24.3538 8.99359 24.3093 9.08183 24.2625C10.2188 23.6448 11.1092 22.8733 11.7313 21.963C11.9087 21.7062 12.0628 21.4341 12.1919 21.1499C12.2526 20.9838 12.2513 20.8938 12.2104 20.8101C12.1666 20.7418 12.1087 20.6836 12.0405 20.6396C11.8457 20.5105 11.6471 20.3815 11.511 20.2933C11.4607 20.2604 11.4124 20.2289 11.3664 20.1988C11.1823 20.0786 11.0339 19.9816 10.9317 19.9101C10.4494 19.5728 10.1122 19.2145 9.90075 18.814C9.75392 18.5368 9.66858 18.2313 9.65042 17.9182C9.63217 17.6051 9.68167 17.2917 9.79533 16.9993C10.1134 16.1588 10.9087 15.6369 11.8712 15.6369C12.0742 15.6368 12.2765 15.6582 12.4748 15.7008C12.5279 15.7123 12.5802 15.7244 12.632 15.7378C12.6237 15.1662 12.6365 14.5562 12.6876 13.9589C12.869 11.8613 13.6042 10.7588 14.3707 9.88125C14.8619 9.32975 15.4412 8.8635 16.085 8.50158C17.2494 7.83726 18.5621 7.5 19.9998 7.5C21.4377 7.5 22.7567 7.83726 23.9198 8.50158C24.562 8.86342 25.1402 9.32875 25.631 9.87867C26.3975 10.7563 27.1327 11.8568 27.3141 13.9564C27.3652 14.5536 27.378 15.1604 27.369 15.7353C27.4207 15.7219 27.4737 15.7098 27.5268 15.6983C27.7252 15.6556 27.9275 15.6342 28.1304 15.6343C29.0923 15.6343 29.8863 16.1563 30.2057 16.9968C30.3189 17.289 30.3678 17.6022 30.3492 17.9149C30.3306 18.2278 30.2448 18.5328 30.0977 18.8096C29.8869 19.2101 29.5497 19.5684 29.0674 19.9057C28.9397 19.9966 28.7416 20.1248 28.4915 20.2867L28.4881 20.2889C28.3469 20.3802 28.1387 20.5157 27.9369 20.6492C27.8765 20.6903 27.8254 20.7436 27.7867 20.8057C27.7478 20.8861 27.7452 20.9743 27.7996 21.1295C27.9304 21.4198 28.0871 21.6977 28.2677 21.9598C28.9039 22.8911 29.8212 23.6768 30.9958 24.2996C31.0555 24.3306 31.1154 24.3607 31.175 24.3907C31.2295 24.4182 31.2838 24.4455 31.3375 24.4733C31.3931 24.4988 31.4582 24.5321 31.5292 24.5736ZM29.1925 27.008C29.5957 26.9006 30.0734 26.7734 30.6586 26.4502C31.3388 26.0714 30.953 25.8389 30.7243 25.7246C26.8529 23.8537 26.2359 20.9602 26.2084 20.7424C26.2073 20.7336 26.2062 20.7248 26.205 20.7161C26.1731 20.4685 26.1473 20.269 26.4243 20.0136C26.6124 19.8394 27.2398 19.4329 27.7293 19.1158C27.9596 18.9665 28.1594 18.8371 28.2684 18.761C28.8324 18.3676 29.0789 17.9747 28.8963 17.4918C28.7685 17.1597 28.4588 17.0319 28.1298 17.0319C28.0264 17.0322 27.9234 17.0438 27.8226 17.0664C27.4581 17.1455 27.0999 17.2856 26.796 17.4044C26.5843 17.4872 26.399 17.5596 26.2563 17.594C26.2146 17.6048 26.1718 17.6106 26.1286 17.6112C25.9433 17.6112 25.8763 17.5289 25.891 17.306C25.8925 17.2823 25.8941 17.2577 25.8957 17.2324C25.9406 16.5376 26.0227 15.2679 25.9198 14.079C25.7748 12.3838 25.228 11.5438 24.5783 10.801C24.2667 10.4452 22.7982 8.90392 19.9973 8.90392C17.1964 8.90392 15.7318 10.4517 15.4201 10.8087C14.7712 11.5515 14.225 12.3915 14.0787 14.0867C13.9807 15.2192 14.0537 16.4244 14.0969 17.1373C14.1007 17.2 14.1043 17.2589 14.1075 17.3137C14.1202 17.5257 14.0551 17.6189 13.8698 17.6189C13.8267 17.6182 13.7839 17.6124 13.7421 17.6017C13.5999 17.5674 13.415 17.495 13.2038 17.4124C12.8999 17.2935 12.5413 17.1532 12.1766 17.0741C12.0757 17.0515 11.9727 17.0399 11.8693 17.0396C11.5423 17.0396 11.2306 17.1654 11.1028 17.4995C10.9202 17.9824 11.168 18.3752 11.7313 18.7687C11.8405 18.8448 12.0406 18.9746 12.2714 19.1241C12.7606 19.4413 13.3875 19.8476 13.5754 20.0212C13.8523 20.2771 13.8266 20.4768 13.7946 20.725C13.7935 20.7333 13.7924 20.7417 13.7913 20.7501C13.7638 20.9647 13.1462 23.8582 9.27542 25.7323C9.04867 25.8421 8.66283 26.0746 9.34308 26.4502C9.92674 26.771 10.4035 26.8976 10.8063 27.0045C11.1405 27.0932 11.4236 27.1684 11.6745 27.3298C11.928 27.4931 11.9636 27.7586 11.9966 28.0052C12.0246 28.2147 12.0509 28.4104 12.2072 28.5184C12.3891 28.6438 12.7253 28.6567 13.1778 28.674C13.7694 28.6967 14.56 28.7269 15.4648 29.0262C15.919 29.1759 16.3137 29.4184 16.7292 29.6738C17.5408 30.1725 18.4319 30.7202 20.0017 30.7202C21.5774 30.7202 22.4781 30.1674 23.2916 29.6681C23.7036 29.4152 24.0932 29.1761 24.5368 29.0294C25.4433 28.7301 26.2338 28.6999 26.8249 28.6772C27.2772 28.6599 27.6128 28.647 27.7944 28.5216C27.9511 28.4136 27.9772 28.2178 28.0051 28.0084C28.0379 27.7618 28.0733 27.4963 28.3272 27.3329C28.5771 27.172 28.8594 27.0968 29.1925 27.008Z" fill="black"/>
</svg>
