<svg width="96" height="16" viewBox="0 0 96 16" fill="none" xmlns="http://www.w3.org/2000/svg">
<path d="M6.95816 1.10043C7.27942 0.111706 8.6782 0.111706 8.99945 1.10043L10.1473 4.63309C10.291 5.07526 10.703 5.37463 11.1679 5.37463H14.8824C15.922 5.37463 16.3542 6.70495 15.5132 7.31602L12.5081 9.49932C12.132 9.7726 11.9746 10.257 12.1183 10.6992L13.2661 14.2318C13.5874 15.2205 12.4557 16.0427 11.6147 15.4317L8.6096 13.2484C8.23347 12.9751 7.72415 12.9751 7.34801 13.2484L4.34295 15.4317C3.5019 16.0427 2.37026 15.2205 2.69151 14.2318L3.83935 10.6992C3.98302 10.257 3.82563 9.7726 3.44949 9.49932L0.444434 7.31602C-0.396625 6.70495 0.0356224 5.37463 1.07523 5.37463H4.78969C5.25461 5.37463 5.66666 5.07526 5.81033 4.63309L6.95816 1.10043Z" fill="#F59E0B"/>
<path d="M26.9152 1.10043C27.2364 0.111706 28.6352 0.111706 28.9565 1.10043L30.1043 4.63309C30.248 5.07526 30.66 5.37463 31.125 5.37463H34.8394C35.879 5.37463 36.3113 6.70495 35.4702 7.31602L32.4652 9.49932C32.089 9.7726 31.9316 10.257 32.0753 10.6992L33.2231 14.2318C33.5444 15.2205 32.4128 16.0427 31.5717 15.4317L28.5666 13.2484C28.1905 12.9751 27.6812 12.9751 27.305 13.2484L24.3 15.4317C23.4589 16.0427 22.3273 15.2205 22.6485 14.2318L23.7964 10.6992C23.94 10.257 23.7827 9.7726 23.4065 9.49932L20.4015 7.31602C19.5604 6.70495 19.9927 5.37463 21.0323 5.37463H24.7467C25.2116 5.37463 25.6237 5.07526 25.7674 4.63309L26.9152 1.10043Z" fill="#F59E0B"/>
<path d="M46.8722 1.10043C47.1935 0.111706 48.5923 0.111706 48.9135 1.10043L50.0613 4.63309C50.205 5.07526 50.6171 5.37463 51.082 5.37463H54.7965C55.8361 5.37463 56.2683 6.70495 55.4272 7.31602L52.4222 9.49932C52.0461 9.7726 51.8887 10.257 52.0323 10.6992L53.1802 14.2318C53.5014 15.2205 52.3698 16.0427 51.5287 15.4317L48.5237 13.2484C48.1475 12.9751 47.6382 12.9751 47.2621 13.2484L44.257 15.4317C43.416 16.0427 42.2843 15.2205 42.6056 14.2318L43.7534 10.6992C43.8971 10.257 43.7397 9.7726 43.3636 9.49932L40.3585 7.31602C39.5174 6.70495 39.9497 5.37463 40.9893 5.37463H44.7037C45.1687 5.37463 45.5807 5.07526 45.7244 4.63309L46.8722 1.10043Z" fill="#F59E0B"/>
<path d="M66.8312 1.10043C67.1525 0.111706 68.5512 0.111706 68.8725 1.10043L70.0203 4.63309C70.164 5.07526 70.5761 5.37463 71.041 5.37463H74.7554C75.795 5.37463 76.2273 6.70495 75.3862 7.31602L72.3812 9.49932C72.005 9.7726 71.8476 10.257 71.9913 10.6992L73.1391 14.2318C73.4604 15.2205 72.3288 16.0427 71.4877 15.4317L68.4826 13.2484C68.1065 12.9751 67.5972 12.9751 67.2211 13.2484L64.216 15.4317C63.3749 16.0427 62.2433 15.2205 62.5646 14.2318L63.7124 10.6992C63.8561 10.257 63.6987 9.7726 63.3225 9.49932L60.3175 7.31602C59.4764 6.70495 59.9087 5.37463 60.9483 5.37463H64.6627C65.1277 5.37463 65.5397 5.07526 65.6834 4.63309L66.8312 1.10043Z" fill="#F59E0B"/>
<path d="M86.7882 1.10043C87.1095 0.111706 88.5083 0.111706 88.8295 1.10043L89.9774 4.63309C90.121 5.07526 90.5331 5.37463 90.998 5.37463H94.7125C95.7521 5.37463 96.1843 6.70495 95.3433 7.31602L92.3382 9.49932C91.9621 9.7726 91.8047 10.257 91.9483 10.6992L93.0962 14.2318C93.4174 15.2205 92.2858 16.0427 91.4447 15.4317L88.4397 13.2484C88.0635 12.9751 87.5542 12.9751 87.1781 13.2484L84.173 15.4317C83.332 16.0427 82.2003 15.2205 82.5216 14.2318L83.6694 10.6992C83.8131 10.257 83.6557 9.7726 83.2796 9.49932L80.2745 7.31602C79.4335 6.70495 79.8657 5.37463 80.9053 5.37463H84.6198C85.0847 5.37463 85.4967 5.07526 85.6404 4.63309L86.7882 1.10043Z" fill="#F59E0B"/>
</svg>
