<svg width="123" height="31" viewBox="0 0 123 31" fill="none" xmlns="http://www.w3.org/2000/svg">
<path d="M32.3291 10.7014H44.7726V13.0179H39.8731V26.0764H37.1876V13.0179H32.3086L32.3291 10.7014ZM44.2396 14.9449H46.5356V17.0974H46.5766C46.6586 16.7899 46.8021 16.5029 47.0071 16.2159C47.2121 15.9289 47.4581 15.6624 47.7656 15.4369C48.0526 15.1909 48.3806 15.0064 48.7496 14.8629C49.0981 14.7194 49.4671 14.6374 49.8361 14.6374C50.1231 14.6374 50.3281 14.6579 50.4306 14.6579C50.5331 14.6784 50.6561 14.6989 50.7586 14.6989V17.0564C50.5946 17.0154 50.4101 16.9949 50.2256 16.9744C50.0411 16.9539 49.8771 16.9334 49.6926 16.9334C49.2826 16.9334 48.8931 17.0154 48.5241 17.1794C48.1551 17.3434 47.8476 17.5894 47.5606 17.8969C47.2941 18.2249 47.0686 18.6144 46.9046 19.0859C46.7406 19.5574 46.6586 20.1109 46.6586 20.7259V26.0149H44.1986L44.2396 14.9449ZM62.0336 26.0764H59.6146V24.5184H59.5736C59.2661 25.0924 58.8151 25.5229 58.2206 25.8714C57.6261 26.2199 57.0111 26.3839 56.3961 26.3839C54.9406 26.3839 53.8746 26.0354 53.2186 25.2974C52.5626 24.5799 52.2346 23.4729 52.2346 22.0174V14.9449H54.6946V21.7714C54.6946 22.7554 54.8791 23.4524 55.2686 23.8419C55.6376 24.2519 56.1706 24.4569 56.8471 24.4569C57.3596 24.4569 57.7901 24.3749 58.1386 24.2109C58.4871 24.0469 58.7741 23.8419 58.9791 23.5754C59.2046 23.3089 59.3481 22.9809 59.4506 22.6119C59.5531 22.2429 59.5941 21.8329 59.5941 21.4024V14.9449H62.0541V26.0764H62.0336ZM66.2156 22.5094C66.2976 23.2269 66.5641 23.7189 67.0356 24.0264C67.5071 24.3134 68.0811 24.4569 68.7371 24.4569C68.9626 24.4569 69.2291 24.4364 69.5161 24.3954C69.8031 24.3544 70.0901 24.2929 70.3361 24.1904C70.6026 24.0879 70.8076 23.9444 70.9716 23.7394C71.1356 23.5344 71.2176 23.2884 71.1971 22.9809C71.1766 22.6734 71.0741 22.4069 70.8486 22.2019C70.6231 21.9969 70.3566 21.8534 70.0286 21.7099C69.7006 21.5869 69.3111 21.4844 68.8806 21.4024C68.4501 21.3204 68.0196 21.2179 67.5686 21.1154C67.1176 21.0129 66.6666 20.8899 66.2361 20.7464C65.8056 20.6029 65.4366 20.4184 65.0881 20.1519C64.7601 19.9059 64.4731 19.5984 64.2886 19.2089C64.0836 18.8194 63.9811 18.3684 63.9811 17.7944C63.9811 17.1794 64.1246 16.6874 64.4321 16.2774C64.7191 15.8674 65.1086 15.5394 65.5596 15.2934C66.0106 15.0474 66.5231 14.8629 67.0766 14.7604C67.6301 14.6579 68.1631 14.6169 68.6551 14.6169C69.2291 14.6169 69.7826 14.6784 70.2951 14.8014C70.8076 14.9244 71.2996 15.1089 71.7096 15.3959C72.1401 15.6624 72.4886 16.0314 72.7551 16.4619C73.0421 16.8924 73.2061 17.4254 73.2881 18.0404H70.7256C70.6026 17.4459 70.3361 17.0564 69.9261 16.8514C69.4956 16.6464 69.0241 16.5439 68.4706 16.5439C68.3066 16.5439 68.0811 16.5644 67.8556 16.5849C67.6096 16.6259 67.4046 16.6669 67.1791 16.7489C66.9741 16.8309 66.7896 16.9539 66.6461 17.0974C66.5026 17.2409 66.4206 17.4459 66.4206 17.6919C66.4206 17.9994 66.5231 18.2249 66.7281 18.4094C66.9331 18.5939 67.1996 18.7374 67.5481 18.8809C67.8761 19.0039 68.2656 19.1064 68.6961 19.1884C69.1266 19.2704 69.5776 19.3729 70.0286 19.4754C70.4796 19.5779 70.9101 19.7009 71.3406 19.8444C71.7711 19.9879 72.1606 20.1724 72.4886 20.4389C72.8166 20.6849 73.1036 20.9924 73.3086 21.3614C73.5136 21.7304 73.6161 22.2019 73.6161 22.7349C73.6161 23.3909 73.4726 23.9444 73.1651 24.4159C72.8576 24.8669 72.4681 25.2564 71.9966 25.5434C71.5251 25.8304 70.9716 26.0354 70.3976 26.1789C69.8031 26.3019 69.2291 26.3839 68.6551 26.3839C67.9581 26.3839 67.3021 26.3019 66.7076 26.1379C66.1131 25.9739 65.5801 25.7279 65.1496 25.4204C64.7191 25.0924 64.3706 24.7029 64.1246 24.2109C63.8786 23.7394 63.7351 23.1654 63.7146 22.4889H66.1951V22.5094H66.2156ZM74.3131 14.9449H76.1786V11.5829H78.6386V14.9244H80.8526V16.7489H78.6386V22.6939C78.6386 22.9604 78.6591 23.1654 78.6796 23.3704C78.7001 23.5549 78.7616 23.7189 78.8231 23.8419C78.9051 23.9649 79.0281 24.0674 79.1716 24.1289C79.3356 24.1904 79.5406 24.2314 79.8276 24.2314C79.9916 24.2314 80.1761 24.2314 80.3401 24.2109C80.5041 24.1904 80.6886 24.1699 80.8526 24.1289V26.0354C80.5861 26.0764 80.3196 26.0969 80.0531 26.1174C79.7866 26.1584 79.5406 26.1584 79.2536 26.1584C78.5976 26.1584 78.0851 26.0969 77.6956 25.9739C77.3061 25.8509 76.9986 25.6664 76.7731 25.4409C76.5476 25.1949 76.4041 24.9079 76.3221 24.5594C76.2401 24.2109 76.1991 23.7804 76.1786 23.3294V16.7694H74.3131V14.9039V14.9449ZM82.5746 14.9449H84.8911V16.4619H84.9321C85.2806 15.8059 85.7521 15.3549 86.3671 15.0679C86.9821 14.7809 87.6381 14.6374 88.3761 14.6374C89.2576 14.6374 90.0161 14.7809 90.6721 15.1089C91.3281 15.4164 91.8611 15.8264 92.2916 16.3799C92.7221 16.9129 93.0501 17.5484 93.2551 18.2659C93.4601 18.9834 93.5831 19.7624 93.5831 20.5619C93.5831 21.3204 93.4806 22.0379 93.2961 22.7349C93.0911 23.4319 92.8041 24.0674 92.4146 24.6004C92.0251 25.1334 91.5331 25.5639 90.9181 25.8919C90.3031 26.2199 89.6061 26.3839 88.7861 26.3839C88.4376 26.3839 88.0686 26.3429 87.7201 26.2814C87.3716 26.2199 87.0231 26.1174 86.6951 25.9739C86.3671 25.8304 86.0596 25.6459 85.7931 25.4204C85.5061 25.1949 85.2806 24.9284 85.0961 24.6414H85.0551V30.1969H82.5951V14.9449H82.5746ZM91.1641 20.5209C91.1641 20.0289 91.1026 19.5369 90.9591 19.0654C90.8361 18.5939 90.6311 18.1839 90.3646 17.8149C90.0981 17.4459 89.7701 17.1589 89.4011 16.9334C89.0116 16.7079 88.5606 16.6054 88.0686 16.6054C87.0436 16.6054 86.2646 16.9539 85.7316 17.6714C85.2191 18.3889 84.9526 19.3524 84.9526 20.5414C84.9526 21.1154 85.0141 21.6279 85.1576 22.0994C85.3011 22.5709 85.4856 22.9809 85.7726 23.3294C86.0391 23.6779 86.3671 23.9444 86.7566 24.1494C87.1461 24.3544 87.5766 24.4569 88.0891 24.4569C88.6631 24.4569 89.1141 24.3339 89.5036 24.1084C89.8931 23.8829 90.2006 23.5754 90.4671 23.2269C90.7131 22.8579 90.8976 22.4479 91.0001 21.9764C91.1026 21.4844 91.1641 21.0129 91.1641 20.5209ZM95.4896 10.7014H97.9496V13.0179H95.4896V10.7014ZM95.4896 14.9449H97.9496V26.0764H95.4896V14.9449ZM100.143 10.7014H102.603V26.0764H100.143V10.7014ZM110.106 26.3839C109.225 26.3839 108.425 26.2404 107.728 25.9329C107.031 25.6254 106.457 25.2359 105.965 24.7234C105.494 24.2109 105.125 23.5754 104.879 22.8579C104.633 22.1404 104.489 21.3409 104.489 20.5004C104.489 19.6599 104.612 18.8809 104.879 18.1634C105.125 17.4459 105.494 16.8309 105.965 16.2979C106.437 15.7854 107.031 15.3754 107.728 15.0884C108.425 14.8014 109.225 14.6374 110.106 14.6374C110.988 14.6374 111.787 14.7809 112.484 15.0884C113.181 15.3754 113.755 15.7854 114.247 16.2979C114.719 16.8104 115.088 17.4459 115.334 18.1634C115.58 18.8809 115.723 19.6599 115.723 20.5004C115.723 21.3614 115.6 22.1404 115.334 22.8579C115.067 23.5754 114.719 24.1904 114.247 24.7234C113.776 25.2359 113.181 25.6459 112.484 25.9329C111.787 26.2199 111.008 26.3839 110.106 26.3839ZM110.106 24.4364C110.639 24.4364 111.131 24.3134 111.521 24.0879C111.931 23.8624 112.238 23.5549 112.505 23.1859C112.771 22.8169 112.956 22.3864 113.079 21.9354C113.202 21.4639 113.263 20.9924 113.263 20.5004C113.263 20.0289 113.202 19.5574 113.079 19.0859C112.956 18.6144 112.771 18.2044 112.505 17.8354C112.238 17.4664 111.91 17.1794 111.521 16.9539C111.111 16.7284 110.639 16.6054 110.106 16.6054C109.573 16.6054 109.081 16.7284 108.692 16.9539C108.282 17.1794 107.974 17.4869 107.708 17.8354C107.441 18.2044 107.257 18.6144 107.134 19.0859C107.011 19.5574 106.949 20.0289 106.949 20.5004C106.949 20.9924 107.011 21.4639 107.134 21.9354C107.257 22.4069 107.441 22.8169 107.708 23.1859C107.974 23.5549 108.302 23.8624 108.692 24.0879C109.102 24.3339 109.573 24.4364 110.106 24.4364ZM116.461 14.9449H118.327V11.5829H120.787V14.9244H123.001V16.7489H120.787V22.6939C120.787 22.9604 120.807 23.1654 120.828 23.3704C120.848 23.5549 120.91 23.7189 120.971 23.8419C121.053 23.9649 121.176 24.0674 121.32 24.1289C121.484 24.1904 121.689 24.2314 121.976 24.2314C122.14 24.2314 122.324 24.2314 122.488 24.2109C122.652 24.1904 122.837 24.1699 123.001 24.1289V26.0354C122.734 26.0764 122.468 26.0969 122.201 26.1174C121.935 26.1584 121.689 26.1584 121.402 26.1584C120.746 26.1584 120.233 26.0969 119.844 25.9739C119.454 25.8509 119.147 25.6664 118.921 25.4409C118.696 25.1949 118.552 24.9079 118.47 24.5594C118.388 24.2109 118.347 23.7804 118.327 23.3294V16.7694H116.461V14.9039V14.9449Z" fill="black"/>
<path d="M29.4585 10.7012H18.204L14.7395 0.000244141L11.2545 10.7012L0 10.6807L9.10199 17.3022L5.617 28.0032L14.719 21.3817L23.821 28.0032L20.3565 17.3022L29.4585 10.7012Z" fill="#00B67A"/>
<path d="M21.1362 19.721L20.3572 17.302L14.7402 21.3815L21.1362 19.721Z" fill="#005128"/>
</svg>
