<svg width="41" height="30" viewBox="0 0 41 30" fill="none" xmlns="http://www.w3.org/2000/svg">
<path d="M30.9555 17.9721C31.4009 17.9721 31.8282 17.9042 32.2536 17.8423C32.1158 18.3056 31.974 18.7769 31.7463 19.2003C31.5187 19.8154 31.1632 20.3486 30.8097 20.8858C30.5142 21.467 29.9929 21.8604 29.6095 22.3576C29.2081 22.8409 28.6609 23.1625 28.2275 23.5639C27.8022 23.9832 27.245 24.1929 26.8016 24.4885C26.3383 24.7541 25.9349 25.0477 25.5036 25.1875L24.4271 25.6308L23.4805 26.0242L24.4491 29.8945L25.6413 29.607C26.0228 29.5111 26.4881 29.3993 27.0173 29.2655C27.5585 29.1656 28.1357 28.892 28.7787 28.6424C29.4138 28.3588 30.1487 28.1671 30.8317 27.7117C31.5187 27.2764 32.3115 26.9129 33.0105 26.3298C33.6875 25.7287 34.5043 25.2074 35.1074 24.4426C35.7664 23.7276 36.4175 22.9767 36.9227 22.122C37.5079 21.3072 37.9053 20.4125 38.3247 19.5278C38.7041 18.6431 39.0096 17.7384 39.2593 16.8597C39.7326 15.0983 39.9443 13.4248 40.0261 11.9929C40.094 10.559 40.0541 9.36679 39.9702 8.50406C39.9403 8.09666 39.8844 7.70124 39.8444 7.42765L39.7945 7.09214L39.7426 7.10412C39.3874 5.44491 38.5697 3.92016 37.3841 2.70625C36.1985 1.49233 34.6935 0.638868 33.0432 0.244583C31.3928 -0.149702 29.6645 -0.0686989 28.0583 0.478222C26.452 1.02514 25.0334 2.01563 23.9666 3.33511C22.8998 4.65459 22.2283 6.24914 22.0298 7.93431C21.8314 9.61947 22.1141 11.3264 22.8452 12.8576C23.5763 14.3888 24.726 15.6818 26.1613 16.5868C27.5965 17.4919 29.2587 17.9722 30.9555 17.9721ZM8.9879 17.9721C9.43325 17.9721 9.86061 17.9042 10.286 17.8423C10.1482 18.3056 10.0064 18.7769 9.77874 19.2003C9.55107 19.8154 9.1956 20.3486 8.84212 20.8858C8.54655 21.467 8.02532 21.8604 7.64189 22.3576C7.24048 22.8409 6.69329 23.1625 6.25993 23.5639C5.83455 23.9832 5.27737 24.1929 4.83403 24.4885C4.37071 24.7541 3.96731 25.0477 3.53594 25.1875L2.45953 25.6308L1.51292 26.0242L2.48149 29.8945L3.67374 29.607C4.05518 29.5111 4.52049 29.3993 5.04971 29.2655C5.59091 29.1656 6.16806 28.892 6.81111 28.6424C7.44418 28.3568 8.18109 28.1671 8.86408 27.7098C9.55107 27.2744 10.3439 26.9109 11.0429 26.3278C11.7199 25.7267 12.5367 25.2054 13.1398 24.4426C13.7988 23.7276 14.4499 22.9767 14.9551 22.122C15.5402 21.3072 15.9377 20.4125 16.357 19.5278C16.7365 18.6431 17.042 17.7384 17.2917 16.8597C17.765 15.0983 17.9767 13.4248 18.0585 11.9929C18.1264 10.559 18.0865 9.36679 18.0026 8.50406C17.9727 8.09666 17.9167 7.70124 17.8768 7.42765L17.8269 7.09214L17.7749 7.10412C17.4198 5.44491 16.6021 3.92016 15.4165 2.70625C14.2309 1.49233 12.7259 0.638868 11.0755 0.244583C9.42518 -0.149702 7.69692 -0.0686989 6.09067 0.478222C4.48442 1.02514 3.06583 2.01563 1.99899 3.33511C0.932159 4.65459 0.260674 6.24914 0.0622253 7.93431C-0.136223 9.61947 0.146465 11.3264 0.877594 12.8576C1.60872 14.3888 2.75841 15.6818 4.19367 16.5868C5.62893 17.4919 7.2911 17.9722 8.9879 17.9721Z" fill="#EFC0A6"/>
</svg>
