<svg width="50" height="50" viewBox="0 0 50 50" fill="none" xmlns="http://www.w3.org/2000/svg">
<path d="M0 25C0 11.1929 11.1929 0 25 0C38.8071 0 50 11.1929 50 25C50 38.8071 38.8071 50 25 50C11.1929 50 0 38.8071 0 25Z" fill="#FF0000"/>
<path d="M37.7754 18.8262C37.4687 17.6481 36.5651 16.7203 35.4177 16.4055C33.3383 15.8333 24.9993 15.8333 24.9993 15.8333C24.9993 15.8333 16.6604 15.8333 14.5809 16.4055C13.4334 16.7203 12.5298 17.6481 12.2231 18.8262C11.666 20.9614 11.666 25.4166 11.666 25.4166C11.666 25.4166 11.666 29.8716 12.2231 32.007C12.5298 33.1851 13.4334 34.1128 14.5809 34.4279C16.6604 34.9999 24.9993 34.9999 24.9993 34.9999C24.9993 34.9999 33.3383 34.9999 35.4177 34.4279C36.5651 34.1128 37.4687 33.1851 37.7754 32.007C38.3327 29.8716 38.3327 25.4166 38.3327 25.4166C38.3327 25.4166 38.3327 20.9614 37.7754 18.8262Z" fill="white"/>
<path d="M22.5 30.0001V21.6667L29.1667 25.8336L22.5 30.0001Z" fill="#FF0000"/>
</svg>
